<svg xmlns="http://www.w3.org/2000/svg" viewBox="0 0 320 220" role="img" aria-labelledby="title desc">
  <title id="title">Farmer planting a small food plot</title>
  <desc id="desc">A farmer waters a small sweet potato plot near a moringa tree and a simple chicken coop.</desc>
  <rect width="320" height="220" rx="10" fill="#fff8df"/>
  <path d="M0 158 C55 142 97 154 148 145 C215 132 265 143 320 126 V220 H0 Z" fill="#dcedc2"/>
  <path d="M25 188 C76 171 133 171 188 188" fill="none" stroke="#8a6f3f" stroke-width="8" stroke-linecap="round"/>
  <path d="M34 169 C82 156 132 156 178 170" fill="none" stroke="#8a6f3f" stroke-width="8" stroke-linecap="round"/>
  <circle cx="92" cy="101" r="16" fill="#7b5638"/>
  <path d="M78 96 C87 78 105 79 116 95 C104 91 93 91 78 96 Z" fill="#2f5c38"/>
  <path d="M92 118 V154" stroke="#7b5638" stroke-width="14" stroke-linecap="round"/>
  <path d="M70 132 C49 139 43 152 41 166" fill="none" stroke="#7b5638" stroke-width="10" stroke-linecap="round"/>
  <path d="M112 130 C139 133 148 146 155 160" fill="none" stroke="#7b5638" stroke-width="10" stroke-linecap="round"/>
  <path d="M77 154 L61 185" stroke="#355b35" stroke-width="11" stroke-linecap="round"/>
  <path d="M107 154 L128 184" stroke="#355b35" stroke-width="11" stroke-linecap="round"/>
  <path d="M150 135 C170 126 193 130 206 146" fill="none" stroke="#2f7b46" stroke-width="8" stroke-linecap="round"/>
  <ellipse cx="168" cy="132" rx="22" ry="10" fill="#4f9a57" transform="rotate(-24 168 132)"/>
  <ellipse cx="194" cy="140" rx="22" ry="10" fill="#4f9a57" transform="rotate(20 194 140)"/>
  <ellipse cx="173" cy="183" rx="28" ry="15" fill="#c9823b"/>
  <path d="M239 157 V71" stroke="#6f4a2e" stroke-width="10" stroke-linecap="round"/>
  <circle cx="224" cy="75" r="20" fill="#68a85d"/>
  <circle cx="251" cy="68" r="22" fill="#5c9d55"/>
  <circle cx="262" cy="93" r="19" fill="#74b567"/>
  <path d="M237 154 H274" stroke="#6f4a2e" stroke-width="8" stroke-linecap="round"/>
  <path d="M220 176 H297 V126 L259 104 L220 126 Z" fill="#f1d393" stroke="#7d5a32" stroke-width="6" stroke-linejoin="round"/>
  <rect x="239" y="142" width="28" height="34" fill="#fff8df" stroke="#7d5a32" stroke-width="5"/>
  <circle cx="284" cy="174" r="13" fill="#f5f0d4" stroke="#7d5a32" stroke-width="5"/>
  <path d="M295 170 L304 164" stroke="#7d5a32" stroke-width="5" stroke-linecap="round"/>
</svg>
