<svg xmlns="http://www.w3.org/2000/svg" viewBox="0 0 320 220" role="img" aria-labelledby="title desc">
  <title id="title">Confirm the plant before using it</title>
  <desc id="desc">A community elder helps a younger person compare a plant before preparing it.</desc>
  <rect width="320" height="220" rx="10" fill="#fff8df"/>
  <path d="M0 168 C66 151 121 166 180 151 C238 136 278 154 320 140 V220 H0 Z" fill="#dcecc7"/>
  <circle cx="73" cy="86" r="18" fill="#7b5638"/>
  <path d="M73 105 V153" stroke="#7b5638" stroke-width="17" stroke-linecap="round"/>
  <path d="M57 122 C37 129 29 143 26 158" fill="none" stroke="#7b5638" stroke-width="11" stroke-linecap="round"/>
  <path d="M89 122 C111 123 124 135 130 151" fill="none" stroke="#7b5638" stroke-width="11" stroke-linecap="round"/>
  <path d="M59 153 L42 188" stroke="#355b35" stroke-width="12" stroke-linecap="round"/>
  <path d="M87 153 L108 188" stroke="#355b35" stroke-width="12" stroke-linecap="round"/>
  <circle cx="247" cy="82" r="20" fill="#8b6240"/>
  <path d="M228 77 C236 57 263 57 275 76" fill="none" stroke="#e7e0c3" stroke-width="8" stroke-linecap="round"/>
  <path d="M247 104 V154" stroke="#8b6240" stroke-width="18" stroke-linecap="round"/>
  <path d="M230 122 C210 124 198 136 193 151" fill="none" stroke="#8b6240" stroke-width="11" stroke-linecap="round"/>
  <path d="M265 122 C283 130 292 144 296 159" fill="none" stroke="#8b6240" stroke-width="11" stroke-linecap="round"/>
  <path d="M232 154 L214 190" stroke="#315f3c" stroke-width="12" stroke-linecap="round"/>
  <path d="M262 154 L284 190" stroke="#315f3c" stroke-width="12" stroke-linecap="round"/>
  <path d="M160 159 V93" stroke="#315f3c" stroke-width="8" stroke-linecap="round"/>
  <ellipse cx="136" cy="107" rx="31" ry="14" fill="#5fa65c" stroke="#315f3c" stroke-width="5" transform="rotate(-18 136 107)"/>
  <ellipse cx="185" cy="104" rx="31" ry="14" fill="#5fa65c" stroke="#315f3c" stroke-width="5" transform="rotate(19 185 104)"/>
  <ellipse cx="142" cy="139" rx="30" ry="13" fill="#78b96e" stroke="#315f3c" stroke-width="5" transform="rotate(20 142 139)"/>
  <ellipse cx="181" cy="139" rx="30" ry="13" fill="#78b96e" stroke="#315f3c" stroke-width="5" transform="rotate(-21 181 139)"/>
  <path d="M126 178 H194" stroke="#315f3c" stroke-width="8" stroke-linecap="round"/>
  <path d="M203 65 L217 80 L245 49" fill="none" stroke="#2f7b46" stroke-width="10" stroke-linecap="round" stroke-linejoin="round"/>
  <path d="M80 50 C101 42 121 47 136 61" fill="none" stroke="#315f3c" stroke-width="6" stroke-linecap="round"/>
</svg>
